<?xml version="1.0" encoding="UTF-8"?><svg id="_·_ÀÌ_î_1" xmlns="http://www.w3.org/2000/svg" viewBox="0 0 132.19 17.67"><defs><style>.cls-1{fill:#0c1a49;}</style></defs><path class="cls-1" d="m16.45.13c-.09-.08-.21-.13-.34-.13-.13,0-.26.05-.35.15-.65.67-1.98.9-3.27,1.13-.96.17-1.87.33-2.59.67-.92.43-1.38,1.1-1.38,1.99v7.86c0,.27.22.49.49.49s.5-.22.5-.49V3.94c0-1.05,1.19-1.34,3.15-1.69.82-.14,1.65-.29,2.39-.56-.21.92-.25,2.05-.28,3.23-.04,1.35-.09,2.75-.43,3.71-.6,1.71-2.49,2.64-4.68,3.72h-.02c-.44.23-.89.45-1.34.68-.45-.24-.91-.46-1.35-.68h0c-2.19-1.08-4.08-2.02-4.68-3.73-.34-.95-.38-2.35-.43-3.71-.04-1.18-.07-2.3-.28-3.23.73.27,1.57.42,2.39.56,1.96.35,3.15.64,3.15,1.69v7.86c0,.27.22.49.49.49s.5-.22.5-.49V3.94c0-.89-.46-1.56-1.38-1.99-.72-.34-1.63-.5-2.59-.67C2.83,1.05,1.5.82.85.15c-.09-.09-.22-.15-.36-.15-.12,0-.24.05-.33.13C-.04.31-.06.61.12.82c.62.71.68,2.45.73,4.14.05,1.43.09,2.91.48,4,.74,2.08,2.89,3.15,5.17,4.28.27.13.55.27.83.41-.48.41-.74.88-.78,1.41-.11,1.33,1.27,2.41,1.43,2.53.08.06.19.1.3.1h.06c.1,0,.21-.03.3-.1.06-.05,1.53-1.17,1.42-2.53-.04-.53-.3-1-.78-1.41.27-.13.53-.27.79-.39h.03c2.28-1.14,4.43-2.21,5.17-4.29.39-1.09.44-2.57.48-4h0c.05-1.69.11-3.42.73-4.14.18-.2.16-.5-.04-.69Zm-8.15,16.42c-.35-.34-.81-.91-.77-1.43.03-.35.29-.67.77-.97.48.3.74.62.77.97.04.52-.42,1.09-.77,1.43Z"/><g><path class="cls-1" d="m22.05,1.93h12.24v8.8h-4.87v2.22h5.93v1.99h-14.35v-1.99h5.91v-2.22h-4.85V1.93Zm2.51,6.81h7.21V3.92h-7.21v4.82Z"/><path class="cls-1" d="m40.25,7.28h5.48v1.91h-5.48v4.19h1c.76,0,1.53-.02,2.31-.07.78-.05,1.56-.12,2.33-.23v1.87c-.77.09-1.58.17-2.43.23-.84.06-1.72.1-2.63.1h-3.02V1.75h7.9v1.91h-5.48v3.62Zm7.82-5.7h2.51v13.88h-2.51V1.58Z"/><path class="cls-1" d="m67.92,14.94h-14.35v-1.99h14.35v1.99Zm-10.78-10.26h7.21V1.84h2.51v8.89h-12.24V1.84h2.51v2.84Zm7.21,1.89h-7.21v2.2h7.21v-2.2Z"/><path class="cls-1" d="m76.57,7.04h1.47V1.58h2.25v13.88h-2.25v-6.43h-1.47v2.55c0,.57-.03,1.09-.09,1.56-.06.47-.19.88-.4,1.23s-.52.62-.93.81c-.41.19-.97.29-1.67.29s-1.26-.1-1.67-.29c-.41-.19-.72-.46-.93-.81-.21-.35-.34-.76-.4-1.23-.06-.47-.09-.99-.09-1.56v-6.12c0-.57.03-1.09.09-1.56.06-.47.19-.88.4-1.23.21-.35.52-.62.93-.81.41-.19.97-.29,1.67-.29s1.26.1,1.67.29c.41.19.72.46.93.81s.34.76.4,1.23c.06.47.09.99.09,1.56v1.58Zm-2.2-1.94c0-.58-.05-.98-.17-1.21-.11-.23-.35-.35-.72-.35s-.61.12-.72.35c-.11.23-.16.64-.16,1.21v6.85c0,.58.05.98.16,1.21.11.23.35.35.72.35s.61-.12.72-.35c.11-.23.17-.64.17-1.21v-6.85Zm7.05-3.52h2.25v13.88h-2.25V1.58Z"/><path class="cls-1" d="m88.6,12.6h-2.44v-1.99h14.35v1.99h-2.46v2.86h-2.51v-2.86h-4.42v2.86h-2.51v-2.86Zm10.85-8.77h-9.72v3.43h9.72v1.91h-12.24V1.93h12.24v1.91Z"/><path class="cls-1" d="m102.81,2.27h2.88v-1.04h2.51v1.04h2.86v1.99h-8.25v-1.99Zm6.07,2.58c.35,0,.65.07.9.22.25.14.46.34.63.57.17.24.29.51.36.81.08.31.11.62.11.94s-.04.64-.11.94c-.08.3-.2.57-.36.81-.17.24-.38.42-.63.56-.25.14-.55.21-.9.21h-3.88c-.35,0-.65-.07-.9-.21-.25-.14-.47-.33-.63-.56-.17-.24-.29-.51-.36-.81s-.11-.61-.11-.94.04-.64.11-.94c.08-.31.2-.58.36-.81.17-.24.38-.43.63-.57.25-.14.55-.22.9-.22h3.88Zm-5.37,5.91h11.72v2.51c0,.48-.05.92-.15,1.32-.1.39-.23.74-.41,1.04h-2.6c.19-.25.34-.55.46-.9.12-.35.18-.66.18-.95v-1.02h-9.2v-1.99Zm2.72-4.12c-.31,0-.52.06-.62.19-.1.13-.16.32-.16.57s.05.44.16.55c.1.12.31.17.62.17h1.42c.31,0,.52-.06.62-.17.1-.12.16-.3.16-.55s-.05-.44-.16-.57c-.1-.13-.31-.19-.62-.19h-1.42Zm10.83.14h-1.84v3.31h-2.51V1.58h2.51v3.21h1.84v1.99Z"/><path class="cls-1" d="m128.41,9.81h-4.19v1.84h-2.43v1.82h1.39c.66,0,1.39,0,2.18-.02.8-.01,1.6-.03,2.42-.05.82-.02,1.61-.05,2.37-.08.77-.03,1.45-.06,2.04-.1v1.98c-.66.06-1.38.1-2.16.13-.78.03-1.57.05-2.38.08-.8.02-1.59.04-2.37.04-.78,0-1.5,0-2.16,0h-3.85v-4.7h2.43v-.95h-3.14v-1.99h9.84v1.99Zm-6.88-2.89c-.47,0-.87-.07-1.18-.2-.31-.13-.56-.32-.75-.55-.19-.24-.32-.51-.39-.82s-.11-.65-.11-1.01.04-.7.11-1.01.21-.59.39-.82c.18-.23.43-.42.75-.55.31-.14.7-.21,1.18-.21h3.92c.73,0,1.27.16,1.62.47.35.31.59.71.7,1.2h1.75v-1.82h2.51v10.59h-2.51v-6.78h-1.77c-.13.45-.37.82-.73,1.1-.36.28-.88.42-1.58.42h-3.92Zm3.19-1.87c.28,0,.46-.05.56-.16.1-.11.15-.29.15-.55s-.05-.44-.15-.55c-.1-.12-.29-.17-.56-.17h-2.46c-.28,0-.47.06-.56.17-.1.12-.15.3-.15.55s.05.44.15.55c.1.11.29.16.56.16h2.46Z"/></g></svg>